<svg width="1728" height="1117" viewBox="0 0 1728 1117" fill="none" xmlns="http://www.w3.org/2000/svg">
<g clip-path="url(#clip0_25_14)">
<rect width="1728" height="1117" fill="white"/>
<path d="M1.78544 0H1728V122.191C1728 122.191 1340.4 343.037 772.988 188.795C205.575 34.5541 -22.8232 267.403 1.78539 244.382L1.78544 0Z" fill="url(#paint0_linear_25_14)"/>
<path d="M244.141 963.188C410.526 939.847 508.794 1050.14 713.913 1012.84C919.032 975.547 990.615 1060.63 1254.73 992.314C1518.84 923.998 1728 963.188 1728 963.188V1117H0C0 1117 77.7561 986.528 244.141 963.188Z" fill="url(#paint1_linear_25_14)"/>
<path d="M0 991.752C0 991.752 376.722 1098.06 896.5 930.376C1416.28 762.694 1728 991.752 1728 991.752V1117H0V991.752Z" fill="url(#paint2_linear_25_14)" fill-opacity="0.67"/>
<path d="M0 989.043C250.741 888.69 415.932 873.766 847.861 895.903C1279.79 918.04 1496.39 972.264 1728 1057V1118H0V989.043Z" fill="url(#paint3_linear_25_14)" fill-opacity="0.67"/>
<path d="M130.872 1050.82L114.943 1057.59C113.84 1058.05 112.289 1055.94 112.486 1054.23L114.489 1036.81C114.61 1035.75 115.394 1035.42 116.24 1036.06L130.165 1046.73C131.529 1047.77 131.975 1050.36 130.872 1050.82Z" fill="white"/>
<path d="M569.58 1054.62L565.983 1071.54C565.733 1072.71 563.11 1072.77 561.825 1071.63L548.7 1060C547.904 1059.29 548.081 1058.46 549.096 1058.14L565.818 1052.84C567.456 1052.33 569.83 1053.44 569.58 1054.62Z" fill="white"/>
<path d="M965.652 979H948.348C947.149 979 946.549 976.445 947.397 974.951L956.049 959.695C956.574 958.768 957.426 958.768 957.951 959.695L966.603 974.951C967.451 976.445 966.851 979 965.652 979Z" fill="white"/>
<path d="M1636.13 1033.42L1626.45 1047.77C1625.78 1048.76 1623.33 1047.83 1622.56 1046.29L1614.75 1030.58C1614.28 1029.63 1614.76 1028.93 1615.82 1029.01L1633.3 1030.37C1635.02 1030.5 1636.8 1032.43 1636.13 1033.42Z" fill="white"/>
<path d="M312.321 1061H292.679C291.2 1061 290 1062.2 290 1063.68V1083.32C290 1084.8 291.2 1086 292.679 1086H312.321C313.8 1086 315 1084.8 315 1083.32V1063.68C315 1062.2 313.8 1061 312.321 1061ZM311.987 1083.32H293.013C292.829 1083.32 292.679 1083.17 292.679 1082.99V1064.01C292.679 1063.83 292.829 1063.68 293.013 1063.68H311.987C312.171 1063.68 312.321 1063.83 312.321 1064.01V1082.99C312.321 1083.17 312.171 1083.32 311.987 1083.32Z" fill="white"/>
<path d="M1429.48 915.221L1418.5 931.505C1417.67 932.731 1417.99 934.397 1419.22 935.224L1435.51 946.208C1436.73 947.035 1438.4 946.711 1439.22 945.485L1450.21 929.2C1451.03 927.974 1450.71 926.309 1449.49 925.482L1433.2 914.498C1431.97 913.671 1430.31 913.995 1429.48 915.221ZM1447.8 927.98L1437.19 943.71C1437.09 943.862 1436.88 943.903 1436.73 943.8L1421 933.19C1420.84 933.087 1420.8 932.878 1420.91 932.726L1431.52 916.996C1431.62 916.843 1431.83 916.803 1431.98 916.906L1447.71 927.515C1447.86 927.618 1447.9 927.828 1447.8 927.98Z" fill="white"/>
<path d="M859.961 1050.04L840.426 1052.1C838.955 1052.25 837.887 1053.57 838.042 1055.04L840.095 1074.57C840.25 1076.04 841.568 1077.11 843.039 1076.96L862.574 1074.9C864.045 1074.75 865.113 1073.43 864.958 1071.96L862.905 1052.43C862.75 1050.96 861.432 1049.89 859.961 1050.04ZM861.961 1072.28L843.092 1074.26C842.909 1074.28 842.743 1074.14 842.724 1073.96L840.741 1055.09C840.721 1054.91 840.855 1054.74 841.039 1054.72L859.908 1052.74C860.091 1052.72 860.257 1052.86 860.276 1053.04L862.259 1071.91C862.278 1072.09 862.144 1072.26 861.961 1072.28Z" fill="white"/>
<path d="M425.784 935.894L411.894 949.784C410.848 950.829 410.848 952.526 411.894 953.572L425.784 967.461C426.829 968.507 428.526 968.507 429.572 967.461L443.461 953.572C444.507 952.526 444.507 950.829 443.461 949.784L429.572 935.894C428.526 934.848 426.829 934.848 425.784 935.894ZM441.331 951.914L427.914 965.331C427.784 965.461 427.571 965.461 427.441 965.331L414.025 951.914C413.895 951.784 413.895 951.571 414.025 951.441L427.441 938.025C427.571 937.895 427.784 937.895 427.914 938.025L441.331 951.441C441.461 951.571 441.461 951.784 441.331 951.914Z" fill="white"/>
<path d="M734.113 940.229V941.081C734.113 941.633 734.48 942.112 735.004 942.26C738.911 943.367 741.774 947.002 741.774 951.321C741.774 956.52 737.626 960.728 732.5 960.728C727.375 960.728 723.226 956.521 723.226 951.321C723.226 947.002 726.088 943.367 729.996 942.26C730.52 942.112 730.887 941.633 730.887 941.081V940.23C730.887 939.427 730.139 938.842 729.373 939.042C723.962 940.456 719.969 945.452 720 951.389C720.036 958.396 725.619 964.015 732.527 964C739.418 963.985 745 958.314 745 951.321C745 945.409 741.011 940.442 735.614 939.039C734.853 938.84 734.113 939.432 734.113 940.229Z" fill="white"/>
<path d="M1170.11 940.229V941.081C1170.11 941.633 1170.48 942.112 1171 942.26C1174.91 943.367 1177.77 947.002 1177.77 951.321C1177.77 956.52 1173.63 960.728 1168.5 960.728C1163.37 960.728 1159.23 956.521 1159.23 951.321C1159.23 947.002 1162.09 943.367 1166 942.26C1166.52 942.112 1166.89 941.633 1166.89 941.081V940.23C1166.89 939.427 1166.14 938.842 1165.37 939.042C1159.96 940.456 1155.97 945.452 1156 951.389C1156.04 958.396 1161.62 964.015 1168.53 964C1175.42 963.985 1181 958.314 1181 951.321C1181 945.409 1177.01 940.442 1171.61 939.039C1170.85 938.84 1170.11 939.432 1170.11 940.229Z" fill="white"/>
<path d="M1313.11 1042.23V1043.08C1313.11 1043.63 1313.48 1044.11 1314 1044.26C1317.91 1045.37 1320.77 1049 1320.77 1053.32C1320.77 1058.52 1316.63 1062.73 1311.5 1062.73C1306.37 1062.73 1302.23 1058.52 1302.23 1053.32C1302.23 1049 1305.09 1045.37 1309 1044.26C1309.52 1044.11 1309.89 1043.63 1309.89 1043.08V1042.23C1309.89 1041.43 1309.14 1040.84 1308.37 1041.04C1302.96 1042.46 1298.97 1047.45 1299 1053.39C1299.04 1060.4 1304.62 1066.01 1311.53 1066C1318.42 1065.99 1324 1060.31 1324 1053.32C1324 1047.41 1320.01 1042.44 1314.61 1041.04C1313.85 1040.84 1313.11 1041.43 1313.11 1042.23Z" fill="white"/>
</g>
<defs>
<linearGradient id="paint0_linear_25_14" x1="11.775" y1="110.673" x2="1670.06" y2="123.128" gradientUnits="userSpaceOnUse">
<stop stop-color="#4669BD"/>
<stop offset="1" stop-color="#AB8ADF"/>
</linearGradient>
<linearGradient id="paint1_linear_25_14" x1="280.231" y1="1004.47" x2="1577.99" y2="1077.69" gradientUnits="userSpaceOnUse">
<stop stop-color="#ABA9E2"/>
<stop offset="1" stop-color="#E6ACF8"/>
</linearGradient>
<linearGradient id="paint2_linear_25_14" x1="82.1903" y1="1039.04" x2="1663.85" y2="1054.12" gradientUnits="userSpaceOnUse">
<stop stop-color="#7E7BD2"/>
<stop offset="0.969027" stop-color="#E2AAF6"/>
</linearGradient>
<linearGradient id="paint3_linear_25_14" x1="75.7927" y1="1088.54" x2="1603.98" y2="1102.13" gradientUnits="userSpaceOnUse">
<stop stop-color="#7E7BD2"/>
<stop offset="0.969027" stop-color="#E2AAF6"/>
</linearGradient>
<clipPath id="clip0_25_14">
<rect width="1728" height="1117" fill="white"/>
</clipPath>
</defs>
</svg>
